<svg id="图层_1" data-name="图层 1" xmlns="http://www.w3.org/2000/svg" viewBox="0 0 192 192"><defs><style>.cls-1{fill:#231815;}</style></defs><title>logo</title><path class="cls-1" d="M188.46,93.45a18.21,18.21,0,0,1,0,2.86c-.3,4.68-.92,8.43-3.1,11.79-3.25,5-8.08,6.49-13.67,5.87-5.43-.61-9-3.84-10.43-9a27.8,27.8,0,0,1,.59-18.55C165.3,78,176.19,75.1,183.1,81a17,17,0,0,1,4.31,6.91A22.43,22.43,0,0,1,188.46,93.45Zm-23-.61a18.25,18.25,0,0,0-.07,5.06,66.08,66.08,0,0,0,1.08,6.81c.65,2.72,1.9,5.22,4.71,6.51,4.33,2,8.83.08,10.57-4.9A30.78,30.78,0,0,0,181.6,86a8,8,0,0,0-4.84-5.32c-4.12-1.51-8.27.37-9.83,5A41,41,0,0,0,165.42,92.84Z"/><path class="cls-1" d="M115.85,78.78h9.83c-.07.26-.07.72-.2.76-2.6.86-2.55,2.91-2.57,5.12,0,6.61,0,13.23-.39,19.82-.34,5.9-4.27,9.38-10.22,9.57-3.32.11-6.67.11-9.46-2.11s-3.57-5.12-3.59-8.4c0-5.87,0-11.74,0-17.61,0-4.3,0-4.3-3.32-7.08h10.75c-.11.25-.18.82-.43.91-2.06.72-2.26,2.34-2.25,4.18,0,6.85,0,13.7,0,20.54,0,4.72,2.28,7.21,6.62,7.5s7.32-1.9,7.57-6.64c.39-7.42.43-14.87.26-22.31C118.45,81.62,116.8,80.24,115.85,78.78Z"/><path class="cls-1" d="M94,113.44H82.74c.42-.51.6-1,.9-1.06,2-.69,2.43-2,2.16-4.06-.87-6.44-.8-6.45-7.16-6.45a18,18,0,0,0-1.8,0c-1.66.17-4.34-.16-4.78.67-1.17,2.23-1.51,5-1.89,7.51-.09.59.88,1.43,1.49,2,.43.4,1.09.55,1.51,1.33H61.8c5.12-3.43,5.6-8.88,7.58-13.51s3.7-9.67,5.53-14.52a39.49,39.49,0,0,0,1.87-5.06c.57-2.54,2.39-2.38,4.15-2.1.52.09,1.09,1.08,1.3,1.76,2.84,9.1,5.53,18.24,8.46,27.31C91.38,109.4,92.83,111.29,94,113.44ZM83.55,99.62,79,84.09h-.69L72.74,99.62Z"/><path class="cls-1" d="M3.46,113.61c2.7-7.42,5.29-14.53,7.89-21.65,1.36-3.74,2.84-7.44,4.05-11.24.58-1.84,1.53-2.49,3.37-2.28a30.18,30.18,0,0,0,3.44,0l11.6,35c-4.26.61-4.28.62-5.52-3-2.61-7.68-5.18-15.37-7.78-23.06A6.33,6.33,0,0,0,19,84.7c-.26.63-.55,1.25-.78,1.9-2.85,8.07-5.81,16.11-8.47,24.25-.79,2.41-2,3.26-4.31,2.86A17.52,17.52,0,0,0,3.46,113.61Z"/><path class="cls-1" d="M147.38,113.38h-9.9a.51.51,0,0,1-.4-.83.31.31,0,0,1,.14-.09c2.5-.67,2.81-2.49,2.79-4.72-.07-8.2,0-16.4,0-24.61V81.39a.52.52,0,0,0-.42-.5c-4.89-.94-6.61.11-8,4.7-.41,1.33-1,2.21-2.47,1.64a.52.52,0,0,1-.34-.48V79.23a.51.51,0,0,1,.51-.51h26.67a.52.52,0,0,1,.51.51c0,2.38,0,4.8-.05,7.22a1.35,1.35,0,0,1-1,.88,2,2,0,0,1-1.46-.62,5.37,5.37,0,0,1-.57-1.68c-1.28-3.8-3.59-5.19-7.45-4.32a2,2,0,0,0-1.11,1.51c0,9,.19,17.89.26,26.84a3.08,3.08,0,0,0,2.28,3.21,1.55,1.55,0,0,1,.33.18A.51.51,0,0,1,147.38,113.38Z"/><path class="cls-1" d="M36.33,98.75V93.64H57v5.11Z"/><path class="cls-1" d="M36.35,83.24V78.67H57v4.57Z"/><path class="cls-1" d="M36.37,113.5V109H57v4.53Z"/></svg>