<svg xmlns="http://www.w3.org/2000/svg" viewBox="0 0 1024 1024">
  <path fill="#41B883" d="M1014.5 880.7c-2.6 0-5.2-1-7.1-2.9L512 513.2 54.7 877.8c-1.9 1.9-4.5 2.9-7.1 2.9-6.8 0-13.6-5.5-13.6-12.4V153.7c0-6.9 6.8-12.4 13.6-12.4 2.6 0 5.2 1 7.1 2.9L512 498.8 1007.4 140.9c1.9-1.9 4.5-2.9 7.1-2.9 6.8 0 13.6 5.5 13.6 12.4v714.6c0 6.9-6.8 12.4-13.6 12.4z"/>
  <path fill="#35495E" d="M874.6 877.8L512 513.2l-362.6 364.6c-1.9 1.9-4.5 2.9-7.1 2.9-6.8 0-13.6-5.5-13.6-12.4V153.7c0-6.9 6.8-12.4 13.6-12.4 2.6 0 5.2 1 7.1 2.9L512 498.8 874.6 140.9c1.9-1.9 4.5-2.9 7.1-2.9 6.8 0 13.6 5.5 13.6 12.4v714.6c0 6.9-6.8 12.4-13.6 12.4-2.6 0-5.2-1-7.1-2.9z"/>
</svg>